<?xml version="1.0" standalone="no"?>
<!DOCTYPE svg PUBLIC "-//W3C//DTD SVG 20010904//EN"
 "http://www.w3.org/TR/2001/REC-SVG-20010904/DTD/svg10.dtd">
<svg version="1.0" xmlns="http://www.w3.org/2000/svg"
 width="4500.000000pt" height="4500.000000pt" viewBox="0 0 4500.000000 4500.000000"
 preserveAspectRatio="xMidYMid meet">
<metadata>
Created by potrace 1.16, written by Peter Selinger 2001-2019
</metadata>
<g transform="translate(0.000000,4500.000000) scale(0.100000,-0.100000)"
fill="#000000" stroke="none">
<path d="M36826 40573 c-32 -110 -60 -492 -42 -587 10 -53 24 -44 31 22 18
169 81 415 126 490 24 41 24 54 1 75 -26 24 -109 23 -116 0z"/>
<path d="M9324 40052 c-20 -14 -64 -220 -64 -304 l0 -38 -147 0 c-427 0 -1019
-83 -1333 -186 -113 -37 -177 -69 -194 -96 -56 -91 549 -281 1109 -347 368
-44 798 -42 1175 5 545 68 1128 254 1074 342 -6 9 -41 32 -78 50 -227 109
-817 211 -1322 229 l-181 6 24 81 c14 45 38 109 55 144 32 69 31 93 -8 110
-28 13 -93 16 -110 4z m-65 -558 c-1 -109 2 -169 9 -176 16 -16 28 20 41 128
7 49 17 116 24 149 l13 60 150 -3 c184 -3 491 -33 690 -67 335 -58 568 -138
539 -184 -34 -56 -332 -151 -643 -205 -590 -104 -1212 -93 -1791 30 -243 52
-442 122 -481 169 -81 98 719 256 1328 264 l122 1 -1 -166z"/>
<path d="M5866 39307 c168 -560 405 -1033 770 -1542 140 -195 446 -519 654
-691 200 -166 420 -317 521 -357 84 -33 268 -81 375 -98 l82 -12 42 -116 c120
-328 263 -595 385 -715 l54 -53 -82 4 c-45 2 -110 6 -143 9 l-62 5 -6 40 c-19
120 -195 342 -507 643 -150 145 -422 388 -441 395 -6 2 15 -45 47 -105 278
-521 508 -808 758 -945 l49 -26 -144 5 -143 5 -50 50 c-165 167 -571 347
-1135 501 -244 67 -774 188 -814 185 -27 -1 513 -243 814 -364 370 -149 699
-261 985 -337 l110 -29 -210 7 c-175 5 -225 10 -300 30 -454 119 -1233 129
-2155 28 -129 -15 -239 -29 -243 -33 -11 -10 465 -55 918 -86 319 -22 983 -31
1167 -16 149 13 271 33 335 54 30 11 80 11 240 2 111 -5 205 -14 209 -18 4 -4
-4 -7 -19 -7 -38 0 -280 -46 -457 -86 -328 -76 -847 -239 -1240 -389 -325
-125 -927 -382 -917 -391 6 -6 376 78 732 166 829 205 1480 412 1787 566 80
40 176 103 197 128 13 16 61 16 220 0 l54 -6 -79 -32 c-244 -101 -699 -378
-1169 -711 -82 -58 -183 -129 -222 -157 -40 -29 -71 -53 -70 -55 11 -10 630
263 891 394 364 182 670 395 747 520 l22 35 111 -6 c61 -4 124 -9 139 -12 27
-6 25 -8 -38 -39 -209 -105 -529 -419 -929 -909 -66 -82 -126 -154 -131 -160
-19 -20 -111 -140 -170 -221 l-59 -80 45 36 c24 20 71 56 104 82 217 165 674
570 930 823 153 152 310 353 336 431 9 30 14 34 37 29 15 -3 75 -8 134 -12 59
-3 122 -9 140 -13 l33 -7 -35 -19 c-47 -24 -231 -210 -306 -310 -57 -75 -240
-349 -345 -517 -51 -81 -258 -456 -309 -558 l-32 -65 112 110 c114 112 398
416 481 515 143 170 339 450 399 570 46 92 90 212 90 247 l0 25 103 -7 c56 -4
122 -10 147 -14 l45 -6 -46 -32 c-56 -39 -160 -150 -204 -218 -83 -129 -206
-405 -275 -617 -47 -147 -112 -380 -106 -385 2 -2 55 65 118 149 368 491 557
828 593 1061 l6 38 42 -5 c23 -3 105 -13 181 -21 77 -9 142 -18 145 -21 3 -2
-6 -12 -20 -21 -138 -95 -265 -359 -358 -744 -42 -171 -84 -401 -79 -427 2 -8
44 43 94 114 298 420 437 717 437 934 0 41 -6 88 -12 104 -6 16 -9 31 -6 34
10 10 652 -75 1045 -139 226 -36 583 -101 705 -128 49 -11 90 -19 91 -18 0 1
15 23 32 48 l31 46 -147 32 c-334 73 -959 163 -1482 212 -129 13 -236 24 -238
25 -2 1 11 23 28 50 78 124 111 283 111 548 0 87 -3 202 -6 255 l-7 98 98 12
c152 18 380 67 479 102 124 43 305 164 501 334 99 85 329 316 407 409 l67 79
0 216 c0 347 29 837 66 1125 8 65 13 120 10 123 -2 3 -64 -9 -138 -25 -691
-156 -1402 -237 -2193 -249 -756 -11 -1466 47 -2175 178 -580 107 -1143 275
-1324 394 -58 38 -66 41 -60 22z m3008 -2791 c3 -17 10 -76 16 -131 30 -264
107 -501 205 -629 20 -27 35 -50 33 -52 -4 -4 -321 16 -326 21 -1 1 2 24 8 50
6 27 8 69 4 94 -19 135 -129 385 -262 595 -34 54 -62 101 -62 105 0 3 85 0
190 -8 l190 -14 4 -31z m1099 -80 c-29 -74 -67 -188 -85 -253 -29 -108 -32
-131 -32 -273 -1 -148 0 -158 26 -212 l27 -57 -27 4 c-15 3 -92 10 -172 16
-80 6 -147 13 -149 15 -2 2 15 24 37 49 75 85 108 239 99 450 -6 116 -26 282
-42 348 l-7 25 134 9 c73 6 158 11 189 11 l56 2 -54 -134z m-487 62 c-31 -194
-38 -253 -43 -398 -6 -182 8 -302 45 -378 l20 -42 -46 1 c-66 0 -262 16 -267
21 -2 2 3 24 12 48 25 71 20 238 -11 390 -21 107 -80 327 -102 383 -6 16 10
17 196 17 l203 0 -7 -42z"/>
<path d="M11882 39025 c-46 -13 -85 -25 -87 -27 -7 -7 -35 -280 -50 -488 -9
-118 -18 -377 -22 -575 l-6 -359 30 34 c16 19 56 70 87 113 l57 77 9 283 c13
360 39 690 70 882 12 72 12 85 3 84 -5 0 -46 -11 -91 -24z"/>
<path d="M35275 38487 c-115 -30 -214 -99 -249 -171 -26 -55 -21 -134 12 -187
56 -88 130 -128 408 -223 215 -73 380 -138 398 -156 16 -16 -282 66 -404 110
-136 50 -164 54 -168 24 -2 -17 7 -26 40 -42 50 -23 255 -89 413 -132 l110
-30 -175 5 c-96 2 -221 8 -277 11 l-103 7 0 -26 c0 -19 6 -28 23 -32 40 -9
327 -24 585 -31 196 -5 255 -10 259 -20 3 -7 -17 -50 -45 -96 -27 -46 -63
-108 -80 -139 -37 -65 -6 -63 -275 -17 -99 16 -233 43 -299 59 -148 36 -158
36 -158 4 0 -22 8 -27 68 -44 81 -25 325 -73 482 -97 63 -9 116 -18 118 -19 2
-2 -76 -176 -82 -182 -3 -3 -353 91 -466 125 -52 16 -101 27 -108 24 -6 -2
-12 -14 -12 -27 0 -22 10 -27 98 -54 53 -17 179 -51 280 -77 100 -26 182 -52
182 -57 0 -11 -119 -4 -320 20 -190 22 -224 22 -228 -1 -2 -10 0 -22 5 -27 8
-8 264 -41 431 -54 45 -4 82 -8 82 -10 0 -1 -18 -56 -39 -121 -80 -244 -114
-446 -114 -679 0 -169 15 -288 54 -422 22 -75 37 -90 70 -73 24 13 24 14 -1
103 -86 308 -62 662 72 1066 l41 124 150 -6 c82 -4 151 -8 153 -9 2 -2 13 -49
24 -103 79 -365 213 -581 408 -656 105 -40 327 -26 353 23 8 16 7 24 -4 35
-13 13 -25 13 -85 3 -194 -35 -328 19 -436 177 -73 107 -145 310 -172 482 -6
39 -5 43 12 37 39 -12 434 -76 584 -95 416 -53 837 -72 1145 -52 217 14 225
16 225 46 0 31 -8 32 -104 21 -44 -5 -229 -9 -411 -9 -353 -1 -534 11 -885 59
-256 34 -269 39 -135 48 481 31 1002 110 1365 207 154 41 170 48 170 75 0 17
-6 24 -18 24 -10 0 -97 -20 -193 -44 -320 -82 -712 -148 -1059 -181 -168 -15
-520 -34 -642 -35 -79 0 -73 -9 -86 144 l-8 99 76 -7 c576 -47 1275 -20 1825
72 90 15 100 19 103 40 2 12 -3 24 -11 28 -8 3 -90 -6 -183 -20 -573 -84
-1185 -105 -1736 -60 l-78 7 0 152 c0 189 -11 180 187 155 194 -25 452 -48
673 -60 199 -11 983 -12 1090 -1 60 5 65 8 65 30 l0 23 -595 2 c-465 2 -639 6
-795 20 -281 24 -308 30 -170 40 343 22 732 66 1037 117 264 43 520 97 535
112 16 16 7 47 -14 47 -9 0 -81 -14 -162 -30 -332 -70 -753 -131 -1121 -164
-202 -19 -417 -31 -410 -23 8 8 236 54 330 66 47 6 171 17 275 26 315 25 379
58 376 193 -3 151 -154 292 -345 322 -258 41 -578 -134 -857 -468 -40 -48 -75
-89 -76 -91 -2 -3 -10 5 -19 17 -19 27 -50 28 -66 3 -11 -18 -20 -7 -98 108
-215 319 -429 537 -595 607 -51 21 -159 26 -220 11z m216 -93 c103 -51 261
-198 389 -359 60 -76 220 -308 220 -320 0 -3 -48 19 -107 49 -161 80 -278 128
-507 206 -226 76 -287 104 -341 151 -102 90 -79 191 57 258 112 55 200 60 289
15z m1777 -185 c109 -37 211 -150 212 -234 0 -79 -54 -98 -335 -120 -324 -26
-527 -62 -712 -126 -45 -16 -84 -29 -88 -29 -29 0 216 254 329 342 93 72 238
150 321 173 79 21 200 19 273 -6z m-1120 -985 c29 -6 30 -8 36 -73 4 -36 9
-88 12 -115 6 -47 6 -49 -17 -43 -13 3 -68 15 -121 27 -54 12 -98 25 -98 30 0
4 18 47 40 94 l39 86 39 0 c22 0 53 -3 70 -6z"/>
<path d="M29900 35267 c0 -2 24 -55 54 -118 50 -105 116 -283 116 -312 0 -7
15 -20 33 -30 18 -10 51 -35 73 -55 48 -44 55 -73 79 -307 15 -139 37 -305 51
-383 5 -26 3 -31 -8 -27 -21 8 -38 92 -48 235 -15 221 -8 204 -114 255 -121
59 -217 80 -255 56 -38 -24 -9 -110 73 -215 25 -33 44 -61 43 -63 -7 -6 -178
56 -228 83 -56 31 -88 67 -144 162 -44 76 -126 268 -118 276 4 3 0 6 -7 6 -7
0 -19 8 -27 18 -13 15 -13 11 -8 -33 4 -27 15 -75 25 -107 l18 -59 -21 7 c-41
12 -286 142 -374 199 l-88 56 95 -93 c126 -123 235 -210 405 -323 77 -51 151
-105 165 -120 37 -40 121 -94 257 -165 l122 -64 -48 -18 c-147 -55 -90 -133
130 -178 87 -18 130 -21 264 -18 180 5 223 16 249 67 34 64 17 136 -48 206
-15 16 -25 33 -23 39 7 23 127 76 238 105 84 23 149 33 240 37 146 8 135 2
245 146 134 178 282 460 252 480 -7 5 -118 7 -248 4 -179 -3 -260 -9 -340 -24
-165 -32 -240 -53 -249 -71 -33 -62 -104 -320 -142 -515 l-11 -59 -37 95 c-98
248 -267 489 -488 698 -92 86 -153 137 -153 127z"/>
<path d="M36014 35202 c-6 -4 -22 -50 -34 -102 -19 -78 -23 -128 -25 -275 -2
-198 1 -248 19 -242 6 2 14 26 18 53 3 27 9 69 12 94 14 99 97 383 117 395 17
11 9 54 -13 69 -23 17 -75 21 -94 8z"/>
<path d="M37850 34416 c-58 -10 -75 -19 -151 -81 -109 -88 -195 -139 -282
-167 -57 -19 -67 -25 -65 -43 3 -17 11 -20 55 -23 76 -4 272 23 404 57 131 33
299 90 478 164 141 57 142 54 -19 87 -112 23 -312 26 -420 6z"/>
<path d="M12835 34311 c-46 -27 -104 -61 -165 -94 -94 -51 -163 -89 -205 -113
l-40 -23 3 -310 3 -310 222 129 222 128 3 306 c1 168 -1 306 -5 305 -5 0 -21
-8 -38 -18z"/>
<path d="M11309 34297 c6 -6 55 -23 109 -38 53 -14 198 -54 322 -89 303 -84
298 -82 437 -120 135 -36 133 -32 43 -82 -25 -14 -103 -57 -175 -97 -71 -40
-146 -81 -165 -92 -19 -11 -59 -32 -87 -47 l-53 -26 0 -318 c0 -175 3 -318 8
-318 4 0 142 78 307 174 l300 174 3 299 2 300 -427 118 c-631 174 -637 175
-624 162z"/>
<path d="M30585 33824 c-65 -51 -233 -115 -370 -143 l-90 -18 -18 -69 c-18
-67 -36 -324 -24 -324 4 0 32 17 64 37 124 79 277 104 417 68 64 -17 201 -77
227 -100 15 -14 18 -9 37 57 29 101 42 180 42 259 l0 68 -56 32 c-31 17 -89
58 -130 90 -40 33 -75 59 -76 59 -2 0 -12 -8 -23 -16z"/>
<path d="M23237 29120 c-985 -64 -1888 -494 -2696 -1285 -256 -250 -435 -455
-653 -745 -380 -508 -684 -1046 -918 -1631 -78 -197 -211 -479 -303 -644 l-45
-80 24 -135 c13 -74 26 -155 29 -180 11 -96 111 -487 122 -477 2 3 17 68 33
147 46 223 90 606 90 787 l0 81 73 40 c191 105 333 242 464 450 54 86 143 256
176 339 16 42 17 42 127 77 61 19 152 45 203 57 51 11 144 36 207 55 202 60
254 67 480 66 312 -2 654 34 780 81 100 37 150 116 102 160 -29 26 -160 40
-312 32 -310 -15 -848 -72 -989 -106 -100 -23 -105 -20 -96 61 13 123 101 245
262 359 112 80 388 217 518 258 458 144 757 205 1620 334 187 27 417 66 510
86 526 109 803 282 964 601 36 72 101 258 101 291 0 31 13 26 62 -27 172 -184
359 -511 512 -898 41 -104 143 -393 225 -640 125 -375 194 -573 236 -675 4
-10 -59 16 -167 70 -174 87 -364 157 -503 186 -173 35 -759 86 -1005 87 -192
1 -273 -11 -291 -44 -28 -52 32 -125 123 -153 84 -25 218 -43 438 -61 170 -13
227 -14 333 -4 210 19 409 -7 607 -80 58 -22 143 -49 190 -60 92 -23 318 -95
336 -108 6 -4 31 -45 54 -92 96 -192 218 -364 321 -452 48 -41 153 -111 181
-120 5 -2 17 -71 28 -153 35 -271 110 -574 169 -684 l18 -33 16 83 c26 132 36
215 42 349 2 69 8 176 11 238 l6 114 -88 86 c-151 150 -268 321 -404 592 -129
258 -238 538 -440 1135 -182 539 -256 715 -414 999 -222 396 -470 736 -804
1099 -74 81 -142 152 -151 157 -24 12 -369 19 -514 10z m762 -1042 c-34 -88
-80 -158 -154 -234 -179 -183 -452 -295 -955 -393 -217 -42 -470 -83 -484 -78
-6 2 5 7 24 12 76 16 634 206 795 269 344 136 597 279 725 409 36 37 66 66 67
67 2 0 -6 -24 -18 -52z m-4154 -1817 c3 -16 22 -55 41 -87 19 -31 31 -61 27
-65 -18 -17 -185 -88 -181 -76 3 6 24 67 48 135 23 67 46 122 51 122 4 0 10
-13 14 -29z"/>
<path d="M3628 27877 c-173 -59 -318 -221 -349 -388 -22 -123 15 -202 266
-559 244 -346 296 -445 303 -569 3 -41 -1 -92 -8 -115 -17 -59 -82 -165 -157
-257 l-64 -80 47 -87 c26 -48 56 -103 67 -122 50 -89 218 -420 213 -420 -2 0
-67 -11 -143 -25 -731 -133 -1283 -308 -1283 -405 0 -29 66 -76 160 -116 116
-49 129 -49 146 0 8 22 16 42 19 44 2 3 55 17 117 31 l113 27 70 -17 c39 -10
80 -21 92 -24 19 -4 24 3 44 63 12 37 23 68 24 70 1 1 60 14 130 27 l128 25
83 -39 82 -39 17 67 c9 37 19 72 23 78 4 7 66 27 138 46 l130 35 98 -184 c54
-101 100 -184 102 -184 3 0 22 14 43 30 l38 31 134 -7 134 -6 24 40 c17 27 40
47 72 63 41 19 57 21 121 15 40 -4 83 -10 96 -13 23 -6 23 -5 -8 57 -17 34
-28 66 -23 70 4 4 40 19 78 34 l70 27 67 -25 67 -26 47 41 c43 37 49 40 93 34
82 -11 90 -14 93 -39 3 -24 5 -23 56 22 l53 47 -35 82 -34 82 89 21 c150 35
400 74 704 110 55 6 -49 8 -335 4 -228 -2 -436 -7 -461 -10 l-47 -6 -30 63
c-17 35 -85 190 -152 344 -67 154 -130 298 -140 320 -9 22 -50 115 -89 206
l-72 166 -52 -15 c-33 -9 -100 -15 -182 -16 -153 -1 -180 8 -261 89 -90 90
-161 262 -268 655 -69 253 -142 493 -160 528 -58 112 -187 150 -338 99z"/>
<path d="M2200 24592 l101 -198 139 -52 c572 -213 1490 -385 2415 -451 1402
-101 3021 74 4047 439 l117 42 110 191 c60 106 113 200 117 210 5 13 -11 7
-57 -22 -279 -175 -1123 -389 -1954 -495 -564 -73 -881 -91 -1555 -91 -674 0
-991 18 -1555 91 -852 109 -1712 329 -1971 503 -25 17 -47 31 -50 31 -3 0 40
-89 96 -198z"/>
<path d="M2391 24228 c17 -34 83 -152 146 -262 513 -894 1024 -1545 1475
-1882 108 -80 287 -189 363 -221 160 -67 430 -117 765 -142 203 -16 616 -25
622 -15 3 5 -4 85 -16 178 l-20 168 26 23 c51 44 227 99 478 149 91 19 199 47
240 64 175 70 429 139 631 172 142 23 400 43 411 32 4 -4 8 -29 10 -57 4 -68
21 -63 32 9 l10 58 51 -6 52 -6 75 83 c144 157 269 311 477 587 32 43 90 123
118 165 14 22 32 46 40 53 34 35 515 773 570 877 10 17 -12 12 -160 -37 -397
-131 -910 -241 -1477 -318 -124 -16 -256 -34 -295 -40 -202 -29 -604 -57
-1008 -70 -475 -15 -1044 5 -1542 55 -771 78 -1547 236 -2022 413 l-82 30 30
-60z"/>
<path d="M12178 24215 c-12 -28 -45 -33 -77 -13 -15 9 -26 9 -45 0 -16 -7 -28
-8 -31 -2 -4 6 -12 10 -19 10 -9 0 3 -55 41 -182 29 -101 59 -202 65 -225 14
-48 22 -51 58 -22 21 17 22 19 3 10 -12 -6 -24 -8 -26 -4 -14 25 -87 297 -83
309 3 8 18 14 33 14 24 0 38 -14 100 -108 78 -115 83 -138 39 -175 -15 -13
139 62 162 79 2 1 -3 15 -11 31 -14 26 -14 35 1 90 10 34 20 64 23 67 5 5 109
-16 167 -35 28 -9 33 -15 30 -34 l-5 -23 71 30 c39 17 75 33 79 38 15 14 -253
100 -313 100 -12 0 -18 4 -15 10 10 16 -14 50 -35 50 -11 0 -25 -9 -32 -20
-19 -31 -83 -28 -104 5 -10 15 -26 25 -40 25 -16 0 -28 -8 -36 -25z"/>
<path d="M11876 24113 c23 -129 86 -427 93 -440 4 -8 23 -1 61 23 30 19 56 39
58 44 2 5 -15 69 -37 142 -33 112 -51 173 -66 233 -1 6 -6 24 -10 42 -6 28 -9
30 -22 18 -19 -19 -47 -19 -63 0 -24 29 -27 14 -14 -62z"/>
<path d="M11820 24153 c0 -23 -53 -43 -115 -43 -27 0 -38 -5 -42 -18 -5 -22
-109 -76 -118 -62 -3 6 -19 10 -35 10 -29 0 -40 -14 -40 -53 0 -15 -16 -33
-49 -55 -26 -18 -77 -58 -111 -90 -40 -35 -71 -56 -82 -54 -28 5 -50 -18 -46
-48 3 -32 -33 -85 -70 -102 -19 -9 -28 -23 -33 -48 -3 -19 -20 -60 -37 -90
-89 -157 -152 -375 -159 -555 -3 -89 -8 -124 -20 -137 -14 -15 -13 -20 7 -53
21 -34 21 -37 5 -63 -23 -36 -14 -26 92 98 110 128 382 395 518 509 55 46 152
122 216 170 64 47 129 96 145 108 l29 22 -51 -18 -51 -18 -12 115 c-10 101
-10 118 3 131 14 13 21 13 70 -2 33 -11 57 -24 60 -35 18 -67 27 -125 21 -140
-5 -15 -4 -15 9 -2 13 13 12 26 -9 115 -13 55 -26 114 -29 130 -41 229 -66
335 -66 278z m-354 -571 c-8 -7 -106 78 -106 91 0 7 24 48 53 92 l52 80 3
-129 c1 -71 0 -131 -2 -134z"/>
<path d="M12803 24067 c2 -13 -26 -30 -123 -71 -166 -71 -497 -237 -539 -272
-3 -3 44 -149 66 -202 l13 -32 55 36 c30 20 55 38 55 40 0 2 -21 -8 -47 -21
-25 -14 -48 -24 -50 -22 -3 3 8 39 32 105 3 9 16 6 49 -10 38 -18 43 -24 33
-36 -7 -9 25 9 69 39 45 29 80 59 77 65 -4 12 27 27 43 22 5 -2 56 26 114 61
112 68 142 90 97 70 -15 -7 -30 -9 -33 -6 -7 7 33 125 48 142 13 14 78 -25 89
-53 l9 -24 38 23 c67 40 67 41 4 78 -31 19 -67 46 -79 60 -17 20 -21 22 -20 8z"/>
<path d="M12985 23951 c7 -13 -4 -20 -240 -165 -194 -119 -515 -325 -515 -331
0 -10 108 -285 165 -420 95 -228 271 -585 287 -585 38 0 401 320 392 345 -3 7
-1 16 5 20 7 4 8 -1 4 -12 -3 -10 27 14 66 52 48 47 67 71 56 73 -24 5 -18 20
34 91 26 36 75 105 108 153 l61 88 6 -32 c7 -34 -6 -57 -97 -173 l-39 -50 41
45 c23 25 69 85 102 133 57 82 60 90 50 119 -6 17 -11 46 -11 63 0 20 -6 35
-15 38 -8 4 -25 28 -39 54 -42 84 -141 226 -205 295 -33 36 -61 73 -61 81 0
33 -13 47 -44 47 -32 1 -77 32 -89 63 -3 9 -11 17 -17 17 -6 0 -9 -4 -5 -9z
m-81 -240 c26 -113 34 -104 -111 -131 -166 -30 -203 -34 -203 -22 0 5 11 34
24 64 21 47 34 61 90 96 56 35 113 55 173 61 6 1 18 -29 27 -68z m-111 -351
c-37 -61 -71 -109 -75 -108 -11 4 -107 205 -101 212 4 3 60 6 125 6 l118 0
-67 -110z m-229 -104 c14 -44 25 -80 23 -81 -10 -7 -130 -36 -134 -32 -3 4 34
118 62 190 11 26 19 13 49 -77z"/>
<path d="M42225 23717 c-118 -173 -257 -388 -253 -392 2 -1 18 -10 36 -19 17
-9 32 -18 32 -20 0 -2 -21 -1 -47 1 l-48 5 -67 -119 c-36 -65 -78 -142 -92
-171 -25 -49 -25 -53 -9 -59 15 -6 15 -8 -6 -13 -19 -4 -31 -21 -53 -75 -39
-95 -60 -182 -56 -228 4 -43 15 -37 -121 -62 -118 -21 -117 -22 -81 30 17 25
45 74 61 109 40 85 101 260 91 263 -4 2 -44 13 -88 26 l-82 24 -26 -106 c-37
-151 -49 -245 -41 -315 l6 -61 -103 -19 c-57 -10 -109 -21 -115 -23 -9 -3 -6
10 6 38 21 48 51 181 51 227 0 28 -6 32 -86 67 -70 30 -89 34 -96 23 -13 -18
-1 -193 17 -255 8 -27 24 -62 35 -76 25 -32 25 -37 -1 -37 -15 0 -19 -5 -15
-15 6 -16 1 -17 -28 -6 -11 4 -57 0 -103 -9 -46 -10 -83 -14 -83 -10 0 4 7 24
15 44 l15 35 -72 34 c-40 19 -74 33 -75 33 -1 -1 13 -33 31 -72 154 -322 135
-650 -59 -1023 -98 -186 -270 -404 -446 -563 l-76 -68 -237 -60 c-315 -79
-664 -152 -981 -205 -386 -65 -549 -85 -615 -75 -30 5 -75 11 -100 13 -176 20
-416 77 -480 114 -25 15 -85 56 -135 91 -313 225 -583 530 -735 831 l-31 63
-28 -58 c-37 -78 -129 -225 -185 -296 l-45 -56 -114 48 c-274 116 -625 225
-959 299 -102 23 -192 41 -199 40 -8 0 61 -20 152 -44 91 -24 224 -63 295 -86
124 -41 127 -44 89 -49 -35 -5 -31 -6 37 -13 42 -4 107 -18 145 -31 90 -31
405 -165 418 -177 5 -5 -21 -9 -70 -10 -44 0 -102 -4 -130 -9 -37 -5 -8 -8
108 -9 l157 -1 113 -56 c61 -31 152 -79 202 -107 l89 -51 -102 -19 c-57 -11
-101 -21 -99 -23 2 -3 55 1 117 8 110 12 113 12 154 -11 88 -50 327 -215 446
-308 121 -95 127 -98 190 -105 36 -4 172 -7 303 -7 237 -1 238 -1 246 -23 5
-13 6 -27 3 -32 -5 -9 -287 -1 -342 9 -132 23 -251 37 -390 45 -216 12 -368
49 -650 161 -91 36 -455 213 -556 272 -54 30 -74 36 -155 42 l-94 7 55 -35
c30 -19 91 -56 135 -81 93 -55 114 -53 -185 -12 -220 30 -514 63 -625 71 -44
3 42 -11 190 -30 149 -20 277 -38 285 -41 11 -4 7 -10 -15 -21 -31 -17 -91
-63 -81 -63 4 0 38 16 76 35 38 19 83 35 100 35 28 0 246 -32 313 -46 l28 -6
-63 -60 c-71 -67 -63 -66 33 4 37 26 74 48 83 48 9 0 66 -25 126 -55 236 -118
484 -214 674 -260 54 -14 101 -27 105 -31 10 -11 -312 4 -445 21 -321 40 -670
121 -1082 252 l-177 56 -265 2 c-290 2 -436 15 -520 47 -95 36 -282 135 -364
192 -244 170 -474 431 -571 649 -17 36 -35 67 -42 67 -67 1 -1164 -226 -1192
-247 -14 -10 289 -292 462 -430 355 -283 656 -471 1087 -682 781 -380 1636
-606 2640 -697 237 -21 917 -30 1176 -15 1291 76 2486 424 3461 1009 413 248
751 511 1080 840 90 90 163 167 163 171 0 4 -67 18 -149 31 l-150 24 -60 111
c-78 143 -200 338 -276 440 -81 110 -200 227 -260 258 -56 29 -56 29 60 52 54
10 81 12 83 5 2 -6 22 -37 44 -70 82 -123 299 -265 618 -403 119 -52 240 -98
240 -92 0 10 -308 268 -425 355 -146 109 -242 170 -330 210 l-59 26 83 17 83
17 48 -44 c124 -111 468 -224 990 -325 229 -44 420 -75 426 -68 5 5 -333 168
-431 208 -303 120 -648 209 -878 226 -48 3 -85 8 -83 11 3 2 65 15 138 28 101
18 140 22 162 14 147 -51 595 3 1260 152 237 53 225 58 -154 60 -452 3 -795
-48 -1070 -158 -62 -25 -126 -41 -212 -54 -68 -10 -124 -17 -125 -16 -2 2 43
22 100 46 133 56 439 208 614 306 222 124 637 374 621 374 -34 0 -508 -180
-698 -265 -292 -130 -572 -308 -677 -429 -37 -43 -41 -45 -127 -60 -49 -9 -91
-14 -93 -12 -2 2 19 20 46 40 164 121 417 460 635 851 l66 120 -117 -120
c-386 -395 -637 -702 -699 -853 l-23 -57 -68 -12 c-120 -21 -121 -21 -74 36
133 159 311 518 505 1019 37 96 66 175 64 177 -2 2 -43 -56 -93 -128z m-536
-1216 c32 -126 174 -313 455 -598 88 -90 153 -163 145 -163 -8 0 -103 13 -210
30 -106 16 -199 30 -205 30 -6 0 -28 42 -49 93 -104 253 -236 480 -326 561
-29 26 -50 48 -48 50 5 3 188 43 210 45 10 1 19 -14 28 -48z m-289 -57 c0
-102 94 -318 221 -507 79 -118 80 -115 -60 -94 l-84 12 -19 80 c-58 251 -156
442 -252 492 l-31 16 95 23 c136 31 130 32 130 -22z m-272 -74 c3 -82 42 -201
118 -359 35 -74 63 -135 62 -136 -2 -1 -58 5 -125 13 -105 12 -123 17 -123 32
0 37 -52 198 -90 277 -24 52 -56 99 -83 126 l-45 43 132 31 c72 17 136 32 141
32 6 1 11 -26 13 -59z"/>
<path d="M41725 23723 c-19 -3 -43 -53 -112 -229 -2 -6 18 -19 44 -30 26 -10
51 -20 54 -22 8 -4 15 35 33 181 7 59 10 106 7 106 -3 -1 -15 -4 -26 -6z"/>
<path d="M12040 23663 c-30 -19 -56 -37 -58 -38 -1 -1 11 -59 29 -129 21 -84
35 -124 43 -119 6 3 38 26 72 49 l61 43 -40 116 c-22 63 -42 115 -46 114 -3 0
-31 -16 -61 -36z"/>
<path d="M11834 23524 c-310 -217 -657 -531 -869 -787 -80 -97 -91 -106 -102
-91 -7 10 -13 14 -13 8 0 -15 14 -30 39 -43 21 -12 23 -18 18 -58 -4 -35 -1
-49 13 -63 10 -10 21 -32 25 -49 3 -17 10 -33 14 -35 4 -3 27 23 52 57 64 90
341 364 509 504 80 66 222 178 315 248 94 70 171 131 173 135 3 7 -57 241 -63
248 -1 1 -51 -32 -111 -74z m-321 -416 c21 -120 21 -120 -29 -159 -41 -32 -58
-38 -167 -57 -66 -12 -122 -21 -123 -19 -1 1 10 29 25 62 35 77 108 140 205
177 39 15 74 27 77 27 4 1 9 -14 12 -31z"/>
<path d="M12123 23383 c-35 -24 -63 -52 -63 -60 0 -46 189 -628 277 -855 33
-82 41 -95 55 -87 15 8 13 18 -18 95 -20 48 -33 92 -30 99 2 7 24 38 47 68 42
54 42 54 77 44 31 -10 40 -22 90 -124 31 -62 60 -113 64 -113 7 0 -54 131
-111 240 -40 76 -177 394 -241 560 -37 96 -72 175 -76 176 -5 1 -37 -18 -71
-43z m94 -95 c94 -142 91 -159 -18 -117 -55 21 -78 36 -82 50 -5 18 38 139 49
139 2 0 25 -33 51 -72z"/>
<path d="M41555 23343 c-4 -10 -22 -62 -41 -116 l-33 -97 42 -27 c23 -14 58
-36 78 -49 l36 -22 26 116 c15 64 29 133 33 153 l6 37 -64 11 c-81 14 -75 14
-83 -6z"/>
<path d="M11859 23191 c-86 -65 -217 -166 -290 -226 -158 -129 -488 -455 -544
-537 -21 -32 -43 -58 -50 -58 -6 0 -12 -15 -13 -33 -2 -27 2 -36 21 -44 14 -6
41 -40 60 -76 20 -35 61 -98 91 -141 46 -63 54 -81 50 -105 -7 -33 18 -54 52
-45 13 3 30 -6 52 -29 l33 -34 52 14 c28 7 59 13 69 13 10 0 15 5 12 13 -2 7
6 23 18 34 l23 21 40 -19 40 -20 124 36 c175 51 413 146 407 162 -4 9 3 13 22
11 15 -1 67 19 122 47 l95 48 -115 30 c-63 16 -117 31 -119 33 -10 9 158 211
172 206 5 -2 6 5 2 15 -4 10 -16 44 -27 76 -11 32 -22 56 -24 54 -3 -2 0 -15
4 -28 8 -21 -3 -38 -86 -136 -52 -62 -97 -113 -98 -113 -2 0 13 26 33 58 20
31 61 98 89 149 l52 92 -58 173 c-32 95 -77 238 -100 318 -24 80 -45 148 -49
152 -3 4 -76 -46 -162 -111z m129 -26 c3 -3 -56 -125 -65 -135 -2 -2 -24 6
-48 19 -65 34 -65 61 -1 110 50 37 52 38 81 23 17 -8 31 -16 33 -17z m182
-430 c0 -27 -170 -309 -180 -298 -4 4 -13 25 -20 46 -11 36 -11 39 38 105 27
37 62 86 77 110 22 33 34 42 56 42 16 0 29 -2 29 -5z m-569 -107 c10 -40 19
-82 19 -94 0 -11 -34 -68 -76 -125 -67 -90 -78 -101 -85 -82 -12 34 -22 226
-15 296 l7 64 62 10 c34 5 63 8 65 7 2 -1 12 -35 23 -76z m-188 -132 c3 -100
8 -191 12 -203 6 -19 4 -23 -14 -23 -17 0 -21 6 -21 31 0 17 -4 28 -10 24 -5
-3 -23 1 -40 10 l-30 16 0 107 c0 202 5 217 71 218 l27 1 5 -181z m433 100
l20 -73 -24 -28 c-22 -26 -26 -27 -46 -15 -11 7 -32 20 -46 28 -25 14 -25 14
-4 -4 11 -11 30 -26 43 -34 19 -13 21 -18 9 -27 -10 -9 -21 -7 -47 9 -29 18
-32 26 -28 53 5 30 83 165 96 165 3 0 15 -33 27 -74z m-571 -121 c0 -160 -2
-175 -17 -175 -14 0 -18 9 -18 40 0 22 -6 57 -14 77 -8 21 -20 62 -26 92 l-11
55 43 43 c23 24 42 43 43 43 0 0 0 -79 0 -175z m394 -99 c6 -24 13 -50 16 -58
4 -9 -6 -29 -20 -47 -23 -27 -33 -31 -75 -31 -27 0 -51 4 -55 10 -5 9 104 168
116 169 4 1 12 -19 18 -43z"/>
<path d="M13504 23262 c8 -14 -45 -93 -163 -242 -99 -123 -347 -372 -484 -485
l-109 -89 49 -11 c27 -6 53 -14 59 -18 7 -4 10 9 10 35 -1 55 20 69 62 40 28
-20 29 -25 21 -59 -12 -55 -12 -57 19 -75 l29 -17 57 58 c32 32 53 61 48 65
-19 11 -1 46 24 46 18 0 25 8 32 33 8 28 6 33 -12 41 -20 8 -21 12 -12 57 l10
49 44 0 c36 0 48 5 76 34 l32 35 -58 6 c-32 4 -58 10 -58 14 0 4 13 20 30 36
28 27 32 28 104 22 l76 -7 20 40 20 40 -54 0 c-30 0 -57 3 -59 8 -3 4 25 45
61 90 72 91 78 91 81 2 l2 -35 20 38 c11 20 24 37 29 37 23 0 17 -26 -24 -109
l-45 -90 58 20 c58 20 58 20 52 52 -4 18 -2 49 3 70 9 32 8 41 -5 50 -21 16
-46 144 -30 160 16 16 14 42 -6 58 -12 10 -15 10 -9 1z"/>
<path d="M41075 23141 c-2 -5 -7 -33 -10 -62 l-6 -54 86 -73 85 -73 0 104 0
105 -75 30 c-41 17 -77 27 -80 23z"/>
<path d="M25893 23056 c-46 -34 -110 -75 -142 -91 l-59 -28 -43 -111 c-80
-210 -226 -524 -323 -695 -20 -35 -35 -65 -33 -67 2 -2 28 13 58 32 203 134
378 367 527 704 35 80 110 322 99 320 -1 -1 -39 -29 -84 -64z"/>
<path d="M18643 23093 c3 -10 11 -32 18 -48 11 -28 9 -35 -16 -74 -86 -137
-169 -330 -219 -511 -42 -149 -65 -389 -47 -485 23 -121 95 -234 190 -295 l48
-31 -57 -58 c-75 -75 -112 -146 -118 -232 -9 -132 58 -221 303 -404 162 -120
246 -204 265 -261 26 -79 -7 -170 -127 -350 -75 -112 -133 -213 -133 -231 0
-4 17 24 38 62 20 39 68 113 106 165 94 129 140 228 140 300 0 103 -57 174
-267 332 -220 166 -287 252 -287 365 1 94 59 195 148 257 l40 27 54 -16 c170
-51 358 -17 358 65 0 112 -179 133 -359 41 l-42 -22 -43 25 c-59 34 -123 107
-154 174 -80 175 -2 580 171 892 17 30 36 64 42 75 38 70 35 70 83 -8 110
-178 321 -438 494 -609 143 -142 153 -143 80 -6 -79 148 -171 347 -243 528
l-59 145 -62 12 c-83 17 -189 70 -279 139 -47 37 -70 50 -66 37z m356 -1394
c31 -18 32 -22 18 -36 -21 -21 -137 -29 -211 -13 -66 14 -64 21 14 49 74 26
136 26 179 0z"/>
<path d="M40696 23018 c-3 -13 -5 -57 -5 -98 l1 -75 109 -98 109 -98 0 51 c0
28 -5 94 -12 146 l-11 95 -51 26 c-28 14 -68 36 -88 49 -46 29 -44 29 -52 2z"/>
<path d="M12265 22144 c-241 -130 -638 -264 -885 -299 -25 -4 -47 -8 -49 -10
-8 -9 12 -25 33 -25 12 0 36 -10 53 -23 24 -18 29 -26 22 -40 -12 -20 5 -57
26 -57 8 0 25 5 38 11 20 9 37 4 113 -34 49 -24 112 -52 139 -62 28 -10 57
-27 66 -38 12 -15 24 -18 50 -15 18 3 81 -3 139 -12 101 -17 361 -22 400 -7 8
3 39 11 68 17 42 10 56 18 67 41 8 15 35 45 59 65 l44 37 -15 33 c-9 18 -20
31 -24 29 -8 -6 -206 13 -228 21 -9 3 21 26 77 60 83 50 91 57 81 75 -10 20
-10 20 -42 0 -85 -52 -192 -113 -287 -164 -117 -62 -353 -167 -375 -167 -29 0
-15 29 20 41 19 7 35 16 35 19 0 3 -22 12 -50 19 -55 14 -61 22 -27 39 12 6
36 20 54 32 l32 21 21 -41 c11 -22 18 -45 15 -50 -5 -8 101 36 114 47 3 2 -3
17 -12 32 l-17 29 51 -13 c51 -14 53 -13 120 21 38 19 69 37 69 41 0 3 -16 35
-35 69 -19 35 -31 65 -27 67 4 3 59 -6 122 -19 l115 -23 38 25 38 25 -48 54
c-47 53 -48 54 -93 48 l-45 -5 33 28 34 29 -18 38 c-10 20 -20 36 -23 36 -3
-1 -42 -21 -86 -45z m-501 -296 c34 -12 65 -24 69 -28 5 -4 -26 -29 -68 -55
l-77 -48 -49 23 c-27 13 -49 26 -49 29 0 9 94 101 104 101 5 0 36 -10 70 -22z"/>
<path d="M23710 22123 c0 -9 7 -24 16 -34 14 -16 11 -20 -43 -52 -159 -96
-415 -140 -793 -136 l-215 3 -138 -37 c-75 -20 -157 -37 -182 -37 -24 0 -113
18 -197 39 -141 36 -170 40 -373 50 -265 14 -364 25 -513 57 -147 31 -247 81
-254 126 -2 12 -8 23 -14 25 -10 3 -145 -127 -152 -148 -7 -18 16 -8 62 27
l47 36 47 -20 c106 -45 308 -98 447 -118 35 -4 76 -23 135 -59 160 -98 296
-157 462 -200 308 -80 687 -20 976 154 64 38 93 49 159 59 131 20 278 59 444
117 85 30 160 55 166 55 5 0 31 -16 57 -36 26 -20 50 -34 52 -31 3 3 -29 44
-72 91 -55 63 -83 86 -100 86 -16 0 -24 -6 -24 -17z m-1896 -263 c121 -13 237
-33 325 -54 205 -52 203 -52 406 -13 141 27 216 36 345 41 l165 5 -84 -39
c-109 -52 -236 -94 -364 -121 -136 -29 -374 -31 -492 -5 -166 36 -452 147
-520 200 -20 16 -19 16 5 11 14 -3 110 -14 214 -25z"/>
<path d="M12626 21818 c25 -51 47 -94 49 -96 1 -1 28 11 60 28 63 33 97 67 73
74 -97 27 -92 27 -111 5 -20 -25 -19 -25 -41 18 -9 18 -30 40 -46 48 l-31 16
47 -93z"/>
<path d="M10926 21471 c-15 -24 -37 -207 -40 -332 -5 -209 14 -265 34 -105 17
132 78 357 101 371 13 9 11 49 -3 63 -14 14 -84 16 -92 3z"/>
<path d="M12495 12500 c-546 -33 -1004 -311 -1136 -690 -34 -97 -32 -229 6
-330 48 -132 110 -225 230 -346 123 -125 214 -190 374 -268 l109 -54 -91 -37
c-379 -154 -739 -409 -915 -647 -80 -109 -142 -262 -142 -352 0 -194 146 -490
338 -684 96 -98 154 -144 283 -225 l87 -54 -152 -58 c-404 -154 -703 -334
-932 -560 -174 -171 -250 -295 -277 -452 -46 -263 228 -617 717 -925 l89 -57
36 27 c45 33 409 332 471 387 25 22 68 58 95 80 27 22 56 47 65 55 47 44 49
38 10 -25 -110 -180 -234 -344 -394 -523 -56 -62 -128 -143 -161 -181 -33 -37
-132 -137 -220 -222 -249 -238 -788 -779 -783 -785 7 -6 170 57 244 94 282
143 617 462 872 832 36 52 67 97 69 99 1 2 51 -16 110 -41 702 -297 1470 -403
2188 -303 353 50 714 157 1020 303 115 55 125 62 235 172 150 150 207 195 435
348 104 70 197 136 207 147 40 48 113 182 140 258 74 207 34 392 -128 595
-264 330 -817 638 -1434 798 -74 19 -141 37 -149 40 -8 3 24 26 74 55 474 272
880 696 991 1037 23 68 29 105 29 173 0 78 -3 91 -38 161 -131 266 -568 496
-1186 624 -21 4 -12 15 83 105 184 175 310 372 357 558 39 153 14 234 -105
350 -260 251 -898 489 -1386 516 -52 3 -122 7 -155 9 -33 2 -114 0 -180 -4z"/>
<path d="M37538 11738 c-9 -7 -19 -33 -23 -58 -3 -25 -11 -72 -16 -105 -12
-86 -13 -375 0 -388 7 -7 12 3 17 31 5 34 11 42 33 45 l26 4 -28 2 c-23 1 -27
5 -23 24 3 12 10 49 16 82 17 91 50 204 76 264 31 69 30 89 -2 101 -34 13 -57
13 -76 -2z"/>
<path d="M37780 11235 c65 -15 90 -24 90 -35 0 -20 -142 -54 -280 -65 l-85 -8
90 -31 c208 -72 257 -139 141 -192 -103 -47 -309 -86 -604 -115 -67 -7 -121
-13 -120 -15 2 -1 109 -8 239 -13 424 -20 908 17 1219 91 94 22 180 56 180 69
0 27 -308 175 -481 233 -137 45 -362 97 -415 95 -20 -1 -13 -5 26 -14z"/>
<path d="M36138 10836 c1 -39 13 -431 27 -871 13 -440 27 -864 31 -942 l6
-141 50 -7 c27 -4 51 -5 53 -4 2 2 -1 85 -6 184 -13 266 -22 461 -34 765 -3
63 -7 162 -10 220 -3 58 -8 161 -10 230 -3 69 -8 166 -10 215 -2 50 -7 153
-10 230 -4 77 -10 141 -15 143 -5 2 -24 14 -42 26 l-33 22 3 -70z"/>
<path d="M38802 10884 c-61 -43 -347 -125 -559 -160 l-113 -18 -1 -36 c-1 -19
-3 -69 -5 -110 -4 -116 -28 -773 -33 -905 0 -11 -7 -195 -15 -410 -8 -214 -14
-397 -14 -405 1 -20 -11 -318 -17 -450 -3 -58 -7 -184 -10 -280 -3 -96 -10
-281 -15 -410 -4 -129 -9 -273 -10 -319 -1 -47 -3 -87 -4 -90 -2 -3 -7 -130
-11 -281 -4 -152 -10 -291 -13 -309 -8 -37 3 -34 -147 -45 -114 -8 -580 -8
-707 0 l-108 7 0 -41 c0 -50 -13 -47 275 -67 392 -26 904 14 1174 91 119 34
209 78 220 106 9 23 146 4082 140 4126 -4 22 -5 22 -27 6z"/>
<path d="M31180 10791 c-7 -32 -15 -63 -19 -68 -3 -5 -49 -7 -111 -3 -104 6
-106 6 -172 -27 l-68 -33 0 49 0 49 -69 21 c-91 28 -95 28 -175 12 l-68 -14 6
-33 c3 -19 9 -50 12 -70 l7 -36 -61 31 c-58 29 -68 31 -171 31 l-110 0 -68
-60 -68 -61 -50 56 c-50 56 -50 56 -108 55 -36 0 -70 -6 -86 -16 -25 -15 -30
-15 -59 0 -31 16 -34 16 -94 -15 -35 -17 -65 -34 -68 -36 -3 -3 11 -18 30 -34
l34 -29 -71 0 -72 0 -37 -45 -36 -45 -87 0 -86 0 -31 -88 c-23 -65 -32 -107
-33 -167 -2 -44 14 -1016 36 -2159 l38 -2079 33 -14 c125 -52 557 -122 972
-158 201 -17 659 -39 666 -32 3 3 -2 276 -11 607 -8 331 -15 620 -15 642 l0
41 -59 -64 -58 -64 -89 76 c-49 42 -89 82 -89 89 0 17 127 179 140 179 6 0 53
-38 105 -84 l95 -83 30 19 c101 66 272 136 438 178 209 54 391 78 657 86 l175
6 0 -205 c0 -186 4 -230 21 -214 3 3 14 66 24 140 11 73 27 166 37 206 l17 74
106 -7 c145 -9 431 -35 451 -41 15 -4 18 13 23 148 5 128 47 2644 46 2776 l0
42 -57 0 c-45 0 -62 -5 -80 -22 -20 -18 -36 -22 -106 -24 -45 -1 -95 -8 -112
-15 -16 -7 -59 -13 -95 -14 -46 -1 -78 -8 -109 -24 -32 -17 -53 -21 -78 -16
-19 3 -50 1 -69 -5 -29 -10 -38 -9 -52 3 -26 24 -98 37 -133 25 -23 -8 -27
-13 -19 -23 19 -23 -22 -36 -85 -29 -41 5 -67 2 -102 -11 -37 -14 -52 -16 -77
-7 -40 14 -111 17 -154 8 -24 -6 -38 -4 -50 7 -9 8 -32 18 -49 22 -26 5 -33 3
-33 -9 0 -10 -9 -16 -25 -16 -14 0 -44 -9 -66 -20 -36 -19 -42 -19 -62 -5 -29
20 -52 19 -103 -6 l-42 -22 -79 22 c-101 27 -120 26 -176 -3 -39 -21 -47 -23
-58 -10 -15 18 -46 18 -82 -1 -26 -13 -31 -13 -55 5 -36 26 -96 28 -154 5 -45
-17 -50 -17 -92 -1 -24 9 -47 24 -50 31 -8 21 -99 20 -116 0 -7 -8 -27 -15
-45 -15 -18 0 -38 7 -45 15 -15 18 -51 19 -134 4 -51 -10 -67 -9 -100 5 -49
20 -85 20 -107 0 -16 -14 -20 -14 -48 0 -35 19 -77 21 -87 5 -4 -8 -12 -3 -20
13 -16 31 -81 48 -99 26 -7 -9 -32 -13 -80 -12 -105 2 -105 2 -105 23 0 20
-47 36 -65 21 -5 -4 -35 -10 -66 -13 -53 -5 -59 -3 -83 22 -21 21 -33 27 -54
23 l-27 -5 36 44 c33 40 43 45 100 56 57 10 66 9 89 -7 24 -17 27 -17 48 -2
21 16 21 18 6 41 -16 23 -16 24 7 42 44 34 61 33 177 -19 l110 -50 11 43 c10
41 12 42 67 53 44 9 62 9 88 -2 32 -13 34 -13 50 15 16 27 22 29 74 29 45 0
66 -6 94 -25 l37 -25 19 33 c11 17 27 49 36 70 14 34 19 38 43 33 16 -3 45 -8
65 -12 34 -5 37 -9 40 -42 l3 -35 90 -21 c89 -21 89 -21 98 -58 8 -34 11 -37
75 -53 42 -10 77 -26 94 -42 15 -15 30 -25 32 -22 2 2 14 27 25 56 l20 52 -50
40 -50 39 62 35 63 35 87 -43 87 -44 21 23 c18 19 28 21 64 17 39 -6 43 -9 51
-43 10 -40 19 -44 60 -28 38 14 94 -15 112 -58 l14 -34 48 44 49 43 -40 29
-40 30 83 19 82 19 32 -31 32 -31 42 17 c40 15 45 15 80 -1 20 -10 52 -30 72
-45 53 -42 53 -42 101 -10 38 25 53 29 113 29 58 0 74 -4 101 -24 29 -22 36
-24 68 -14 47 14 74 6 125 -38 l43 -37 32 31 c21 20 53 36 95 47 l62 16 36
-28 c27 -20 46 -26 71 -24 28 2 35 -1 40 -18 4 -18 11 -20 49 -14 31 4 50 1
68 -11 33 -21 46 -20 46 4 0 17 7 20 39 20 32 0 44 -6 64 -31 l25 -32 -18 74
-17 74 -67 16 -66 17 -53 -29 -53 -28 -64 64 -64 65 -68 0 c-37 0 -68 3 -68 8
0 4 7 29 15 55 l14 48 -80 39 -81 39 -59 -33 c-62 -35 -74 -35 -176 -11 -22 5
-23 2 -23 -49 l0 -54 -52 29 c-48 26 -62 29 -147 29 -85 0 -96 -2 -123 -25
-16 -14 -33 -25 -37 -25 -4 0 -14 26 -21 58 -18 81 -22 87 -81 100 -49 12 -54
11 -104 -17 l-54 -28 -46 53 -46 54 -68 0 -68 0 -13 -59z m-691 -1238 c34 -21
60 -42 60 -48 0 -5 -8 -27 -17 -47 l-17 -37 -69 29 c-38 16 -71 32 -74 35 -7
7 39 105 49 105 4 0 35 -17 68 -37z m1749 -190 c11 -43 19 -79 18 -80 -1 -1
-36 -18 -78 -37 l-76 -35 -12 67 c-6 37 -13 74 -16 83 -3 11 14 24 63 46 38
17 71 32 74 32 3 1 15 -34 27 -76z m-2597 -195 l31 -47 -33 -41 c-18 -22 -37
-40 -43 -40 -16 0 -126 113 -126 128 0 7 21 35 46 62 l47 50 24 -32 c13 -18
38 -54 54 -80z m2816 -530 c57 -10 64 -14 59 -32 -2 -12 -8 -38 -11 -58 -6
-33 -12 -39 -54 -54 -25 -10 -61 -23 -80 -31 -19 -7 -35 -12 -36 -11 -2 2 2
47 8 101 12 110 5 105 114 85z m-963 -88 c47 -21 86 -42 86 -46 0 -19 -46 -84
-59 -84 -18 0 -158 44 -166 52 -7 7 36 118 45 118 5 0 47 -18 94 -40z m-1292
-325 c-4 -6 -27 -37 -51 -67 l-45 -56 -99 49 c-58 30 -97 55 -94 62 2 7 21 60
42 119 l39 106 107 -101 c66 -61 105 -105 101 -112z m2463 -605 c-21 -22 -42
-40 -46 -40 -4 0 -31 27 -59 60 -57 66 -58 70 -13 139 l15 24 71 -71 71 -72
-39 -40z m-2930 -1131 c32 -44 56 -81 54 -83 -2 -2 -17 -8 -34 -13 -16 -6 -53
-20 -81 -31 l-50 -20 -29 66 -29 65 53 49 c29 26 54 48 56 48 2 0 29 -36 60
-81z m831 -286 c-2 -10 -10 -44 -17 -75 l-12 -58 -74 0 c-66 0 -74 2 -69 18 2
9 8 36 11 60 6 35 11 43 33 48 15 3 41 10 57 14 53 14 77 12 71 -7z"/>
<path d="M16290 7678 c-143 -196 -475 -581 -516 -598 -6 -3 -45 -33 -85 -67
-41 -35 -135 -112 -210 -171 -75 -59 -152 -122 -170 -140 -19 -17 -48 -41 -66
-54 -18 -13 -79 -61 -135 -108 -57 -47 -116 -94 -131 -104 -41 -25 -293 -245
-347 -301 -53 -55 -49 -55 100 7 288 119 611 331 862 565 221 206 417 444 575
698 80 128 212 375 200 375 -1 0 -36 -46 -77 -102z"/>
<path d="M7105 7743 c-48 -10 -114 -52 -170 -108 -94 -93 -171 -236 -331 -608
-200 -463 -322 -667 -476 -794 -57 -47 -152 -96 -207 -108 l-35 -7 46 53 c98
116 160 235 330 634 66 154 153 345 194 424 l74 145 -27 83 c-16 45 -31 83
-35 83 -12 0 -119 -189 -193 -342 -40 -84 -108 -236 -150 -338 -152 -366 -245
-540 -335 -624 -62 -58 -109 -79 -180 -79 -88 0 -100 7 -100 59 0 35 -6 51
-26 71 -22 22 -31 24 -65 19 -31 -5 -39 -3 -39 9 0 9 -11 27 -25 40 -35 36
-90 34 -142 -4 l-40 -29 -243 134 -242 134 -18 -23 c-18 -22 -18 -22 13 -50
34 -29 32 -30 -33 -11 -20 5 -50 -10 -50 -26 0 -5 8 -11 18 -13 11 -3 9 -5 -8
-6 -25 -1 -57 -37 -45 -49 4 -4 41 -19 83 -34 l77 -28 -95 3 c-91 2 -95 1 -98
-20 -3 -18 3 -23 32 -29 53 -9 54 -24 2 -24 l-46 0 0 -40 0 -40 98 -1 c157 -2
164 -12 24 -34 l-122 -18 0 -34 0 -34 43 5 c77 11 589 57 591 54 1 -2 11 -23
21 -46 28 -65 78 -102 137 -102 36 0 51 5 60 19 6 10 17 17 24 14 7 -2 21 0
31 5 13 7 41 2 103 -19 349 -116 634 -18 868 299 108 146 175 277 357 697 190
439 296 585 424 585 22 0 43 5 46 10 4 6 -9 10 -30 10 -29 0 -36 3 -31 15 3 8
9 22 12 30 5 12 0 14 -25 9 -40 -8 -39 2 2 37 24 21 28 28 15 29 -10 0 -18 5
-18 10 0 10 -10 11 -45 3z"/>
<path d="M18455 7066 c-260 -87 -736 -263 -750 -277 -5 -5 -16 -9 -24 -9 -14
0 -575 -213 -656 -250 -22 -9 -65 -26 -95 -36 -30 -9 -75 -27 -100 -40 -25
-12 -76 -32 -115 -44 -38 -13 -126 -45 -195 -71 -136 -51 -206 -73 -218 -65
-7 4 -278 -68 -774 -207 -2811 -790 -5888 -1122 -8643 -932 -403 28 -801 69
-1123 116 -73 10 -138 19 -145 19 -16 0 -50 -61 -40 -71 18 -16 574 -83 948
-113 636 -53 880 -61 1775 -61 814 0 988 5 1560 40 1890 119 3766 441 5633
966 l247 70 133 -7 c252 -13 510 27 807 126 253 84 370 136 905 406 507 256
723 357 957 450 79 31 145 58 147 60 12 11 -32 -2 -234 -70z"/>
<path d="M39750 6054 c-149 -17 -280 -40 -430 -74 -541 -124 -705 -150 -949
-150 -144 0 -148 1 -147 21 1 17 -8 24 -44 35 -40 12 -47 11 -74 -6 -30 -18
-30 -18 -85 10 l-56 28 -52 -24 c-31 -13 -53 -29 -53 -38 0 -22 -39 -20 -64 2
-17 14 -33 17 -78 14 -39 -2 -58 -8 -58 -17 0 -10 -41 -25 -71 -25 -5 0 -15
15 -23 33 -12 30 -20 35 -65 44 -49 10 -51 9 -51 -12 0 -19 -7 -24 -46 -30
-33 -5 -48 -12 -51 -25 -4 -14 -18 -21 -52 -26 -133 -18 -240 -52 -288 -91
l-23 -18 28 -42 c15 -23 39 -50 52 -61 109 -85 376 -145 645 -146 160 -1 243
12 399 61 95 29 307 112 321 124 19 18 -63 8 -87 -10 -15 -12 -29 -16 -38 -11
-17 11 -70 -8 -70 -26 0 -8 -10 -14 -22 -14 -12 0 -30 -8 -40 -17 -16 -14 -25
-15 -58 -6 -34 9 -42 8 -56 -8 -10 -11 -29 -19 -43 -19 -14 0 -37 -9 -51 -20
-14 -11 -36 -20 -50 -20 -14 0 -31 -4 -39 -9 -10 -6 -23 -2 -42 11 -21 16 -35
19 -61 13 -18 -4 -50 -8 -71 -9 -21 -2 -43 -8 -50 -15 -6 -6 -18 -11 -26 -11
-32 0 -96 29 -99 43 -3 15 -48 31 -70 25 -6 -2 -17 6 -25 16 -11 15 -21 17
-50 12 -22 -4 -37 -13 -37 -21 0 -22 -20 -28 -38 -12 -35 30 -60 38 -81 25
-17 -10 -23 -8 -44 14 -14 15 -40 28 -63 32 -46 8 -90 38 -80 55 4 6 21 18 38
27 29 15 31 15 58 -11 21 -20 34 -25 50 -20 18 6 21 13 18 43 -3 32 0 38 25
46 21 8 40 6 75 -6 58 -21 75 -11 70 43 -3 31 0 39 17 43 11 3 30 -2 43 -10
21 -14 25 -14 41 0 27 24 55 19 79 -14 32 -43 92 -43 145 1 35 29 40 30 68 19
16 -7 43 -30 60 -51 23 -29 38 -39 60 -39 33 0 32 0 20 33 -8 21 -5 29 19 52
l28 27 32 -23 c34 -26 79 -27 93 -3 4 8 23 14 41 14 29 0 35 -5 48 -38 14 -36
18 -39 47 -34 45 6 83 -21 75 -53 -6 -24 -4 -25 34 -25 23 0 44 -5 48 -11 3
-6 17 -8 31 -4 14 3 31 1 38 -5 8 -7 21 -7 39 0 14 5 26 7 26 5 0 -11 -250
-126 -338 -155 -187 -63 -425 -98 -577 -85 -300 24 -514 101 -583 209 -14 23
-28 43 -30 46 -7 10 -22 -27 -22 -58 0 -48 21 -82 95 -150 112 -103 314 -193
509 -227 113 -19 332 -20 424 0 163 34 325 107 652 295 461 264 690 351 1008
381 245 24 535 -27 812 -141 40 -17 77 -30 82 -30 13 0 58 101 58 132 0 79
-54 117 -215 148 -91 18 -153 23 -355 25 -135 2 -261 1 -280 -1z"/>
<path d="M15030 5739 c65 -164 192 -253 485 -339 343 -101 479 -145 610 -197
135 -53 403 -183 494 -239 24 -15 41 -22 37 -16 -26 43 -809 504 -879 518 -10
1 -64 27 -120 57 -56 30 -119 60 -141 67 -21 7 -73 29 -115 50 -63 32 -368
150 -385 150 -3 0 3 -23 14 -51z"/>
<path d="M38579 5123 c-11 -27 -21 -51 -22 -55 -1 -3 23 -24 53 -46 l55 -39
56 40 c32 22 56 45 54 51 -2 6 -9 30 -15 54 l-11 42 -75 0 -75 0 -20 -47z
m159 18 c-1 -4 4 -19 10 -34 7 -16 12 -32 12 -37 0 -9 -62 -51 -68 -45 -2 2 4
17 12 34 28 53 17 48 -15 -7 l-31 -52 -40 31 -39 32 61 34 c34 19 59 37 56 40
-3 3 -29 -9 -59 -26 -30 -17 -57 -31 -61 -31 -3 0 2 16 11 35 l17 36 67 -3
c37 -1 67 -4 67 -7z"/>
<path d="M12270 5153 c8 -3 121 -43 250 -88 775 -273 1510 -581 1840 -771 82
-47 66 -27 -78 98 -221 190 -526 421 -609 460 -24 11 -43 24 -43 29 0 8 -48
32 -210 107 -67 30 -183 60 -267 68 -26 2 -95 13 -153 24 -115 21 -293 42
-555 65 -180 16 -199 17 -175 8z"/>
<path d="M37605 5010 l-89 -89 55 -25 c29 -13 88 -40 131 -59 l76 -35 42 100
c22 56 37 104 33 108 -4 4 -42 26 -84 48 l-75 41 -89 -89z m209 13 c11 -6 -26
-22 -125 -55 l-140 -47 71 79 71 79 54 -24 c30 -13 61 -27 69 -32z"/>
<path d="M12233 4810 c341 -189 611 -449 859 -825 112 -169 275 -488 358 -697
30 -75 56 -136 58 -134 5 6 -97 281 -159 428 -165 393 -353 686 -593 924 -181
180 -344 286 -530 343 -109 34 -108 25 7 -39z"/>
<path d="M7500 4790 c-24 -7 -24 -8 -5 -15 487 -194 1039 -504 1560 -877 l110
-79 -145 143 c-214 211 -535 477 -630 522 -19 9 -62 36 -95 61 -69 52 -308
173 -405 205 -36 12 -94 28 -130 36 -69 15 -218 17 -260 4z"/>
<path d="M30270 4751 c0 -5 7 -25 15 -44 8 -20 15 -42 15 -49 0 -8 -34 -42
-75 -77 -41 -34 -75 -66 -75 -70 0 -8 253 -131 268 -131 4 0 47 38 97 84 l89
83 -79 106 -79 107 -88 0 c-48 0 -88 -4 -88 -9z m116 -127 c27 -9 50 -18 51
-19 4 -2 -35 -176 -40 -181 -2 -3 -42 12 -88 32 -46 20 -95 40 -107 45 -23 9
-22 12 45 74 37 35 73 64 79 65 6 0 33 -7 60 -16z"/>
<path d="M38284 4628 c3 -13 14 -52 23 -88 9 -36 17 -66 18 -67 0 -1 35 -9 76
-18 41 -8 84 -17 97 -20 22 -5 22 -4 22 89 l0 95 -32 6 c-90 15 -165 25 -187
25 -19 0 -22 -4 -17 -22z m151 -18 c33 -6 61 -13 63 -15 1 -1 -9 -30 -24 -64
l-27 -62 -41 6 c-71 11 -76 14 -76 46 0 20 10 39 33 60 l32 31 -37 -27 c-38
-28 -41 -27 -52 19 -7 28 -6 28 31 23 21 -2 65 -10 98 -17z"/>
<path d="M30945 4530 c-16 -33 -27 -61 -24 -63 2 -3 45 -8 96 -13 l91 -9 -15
35 c-8 19 -17 40 -20 47 -4 10 -84 63 -95 63 -3 0 -17 -27 -33 -60z"/>
<path d="M31127 4143 c-34 -31 -63 -59 -64 -63 -3 -4 220 -140 230 -140 10 0
98 131 93 139 -6 9 -182 121 -191 121 -3 0 -33 -26 -68 -57z m238 -74 c0 -9
-17 -35 -38 -58 l-37 -42 -92 50 -91 49 54 6 c30 3 68 8 84 10 67 8 120 2 120
-15z"/>
<path d="M30630 3987 c-98 -17 -90 -9 -90 -91 l0 -74 93 20 c50 11 94 22 96
24 2 2 -9 32 -25 67 l-29 63 -45 -9z"/>
<path d="M29903 3803 l-73 -55 0 -75 0 -74 121 3 122 3 53 72 53 72 -90 55
c-50 31 -96 56 -103 55 -6 0 -44 -25 -83 -56z m165 -123 l-43 -49 -82 -1 -83
0 0 45 0 44 63 4 c34 2 90 4 125 5 l64 2 -44 -50z"/>
</g>
</svg>
